<svg width="40" height="40" viewBox="0 0 40 40" fill="none" xmlns="http://www.w3.org/2000/svg">
<path d="M20 0C31.046 0 40 8.954 40 20C40 31.046 31.046 40 20 40C8.954 40 0 31.046 0 20C0 8.954 8.954 0 20 0ZM12 22L4.124 22.002C4.56958 25.5264 6.17486 28.8025 8.68703 31.3143C11.1992 33.8261 14.4755 35.4309 18 35.876V28C16.4087 28 14.8826 27.3679 13.7574 26.2426C12.6321 25.1174 12 23.5913 12 22ZM35.876 22.002L28 22C28 23.5913 27.3679 25.1174 26.2426 26.2426C25.1174 27.3679 23.5913 28 22 28L22.002 35.876C25.5261 35.4305 28.802 33.8255 31.3138 31.3138C33.8255 28.802 35.4305 25.5261 35.876 22.002ZM24 20H16V22C16 22.5304 16.2107 23.0391 16.5858 23.4142C16.9609 23.7893 17.4696 24 18 24H22C22.5304 24 23.0391 23.7893 23.4142 23.4142C23.7893 23.0391 24 22.5304 24 22V20ZM20 4C16.1028 4.00007 12.3395 5.42237 9.4165 8.00001C6.49347 10.5776 4.61158 14.1334 4.124 18H12C12 17.4696 12.2107 16.9609 12.5858 16.5858C12.9609 16.2107 13.4696 16 14 16H26C26.5304 16 27.0391 16.2107 27.4142 16.5858C27.7893 16.9609 28 17.4696 28 18H35.876C35.3884 14.1334 33.5065 10.5776 30.5835 8.00001C27.6605 5.42237 23.8972 4.00007 20 4Z" fill="black"/>
</svg>
